<svg width="59" height="52" viewBox="0 0 59 52" fill="none" xmlns="http://www.w3.org/2000/svg">
<path fill-rule="evenodd" clip-rule="evenodd" d="M28.0119 0.0336595C34.0907 -0.385295 39.8868 3.16505 44.2376 7.43101C48.2159 11.3318 48.5339 17.268 50.7862 22.364C53.402 28.2822 61.0391 33.7201 58.4846 39.6651C55.857 45.7803 46.6545 44.6534 40.3246 46.7109C36.217 48.0461 32.2969 49.0282 28.0119 49.5702C22.9895 50.2054 17.6361 52.5928 13.2073 50.1406C8.67146 47.6291 7.54927 41.8376 5.46915 37.0884C3.12497 31.7364 -1.25999 26.3925 0.345076 20.7744C1.95572 15.1367 8.64219 13.0779 13.3336 9.56092C18.1178 5.97433 22.0466 0.444784 28.0119 0.0336595Z" fill="url(#paint0_linear)"/>
<path d="M26.1544 40.4602C25.9299 40.5592 25.6882 40.6536 25.4292 40.7436C25.1788 40.8246 24.9198 40.8875 24.6521 40.9325C24.3931 40.9775 24.1384 41 23.888 41C23.5168 41 23.1757 40.937 22.8649 40.8111C22.5541 40.6761 22.3037 40.4602 22.1138 40.1633C21.9325 39.8574 21.8418 39.448 21.8418 38.9352V35.6829H21V33.753H21.8418V31.5263H24.3024V33.753H25.6364V35.6829H24.3024V38.031C24.3024 38.265 24.3499 38.4314 24.4449 38.5304C24.5399 38.6203 24.6694 38.6653 24.8334 38.6653C24.9543 38.6653 25.0924 38.6428 25.2479 38.5978C25.4033 38.5529 25.5587 38.4989 25.7141 38.4359L26.1544 40.4602Z" fill="white"/>
<path d="M30.1302 40.9865C29.5345 40.9865 29.0035 40.892 28.5373 40.7031C28.071 40.5052 27.6782 40.2398 27.3587 39.9069C27.0479 39.574 26.8105 39.1916 26.6464 38.7598C26.4824 38.3279 26.4004 37.8736 26.4004 37.3968C26.4004 36.713 26.5428 36.0877 26.8277 35.5209C27.1127 34.9451 27.5314 34.4863 28.084 34.1444C28.6365 33.7935 29.3186 33.6181 30.1302 33.6181C30.9418 33.6181 31.6239 33.789 32.1764 34.1309C32.729 34.4728 33.1477 34.9226 33.4326 35.4804C33.7176 36.0382 33.86 36.6455 33.86 37.3023C33.86 37.4372 33.8514 37.5767 33.8341 37.7206C33.8255 37.8556 33.8125 37.9771 33.7953 38.085H29.0164C29.0337 38.3369 29.0985 38.5439 29.2107 38.7058C29.3316 38.8587 29.4783 38.9712 29.651 39.0432C29.8323 39.1152 30.018 39.1511 30.2079 39.1511C30.4756 39.1511 30.7259 39.0882 30.959 38.9622C31.2008 38.8363 31.3605 38.6608 31.4382 38.4359L33.5233 39.0567C33.342 39.4345 33.0873 39.7674 32.7592 40.0553C32.4398 40.3432 32.0599 40.5726 31.6195 40.7436C31.1792 40.9055 30.6828 40.9865 30.1302 40.9865ZM28.9646 36.5466H31.2181C31.1922 36.3126 31.1274 36.1147 31.0238 35.9528C30.9288 35.7908 30.7993 35.6649 30.6353 35.5749C30.4799 35.4849 30.2986 35.4399 30.0913 35.4399C29.8841 35.4399 29.6985 35.4849 29.5345 35.5749C29.3791 35.6649 29.2495 35.7908 29.1459 35.9528C29.051 36.1147 28.9905 36.3126 28.9646 36.5466Z" fill="white"/>
<path d="M34.616 31H37.0767V38.031C37.0767 38.2919 37.1285 38.4944 37.2321 38.6383C37.3443 38.7733 37.504 38.8408 37.7113 38.8408C37.8149 38.8408 37.9271 38.8228 38.048 38.7868C38.1689 38.7508 38.2811 38.7013 38.3847 38.6383L38.6955 40.5277C38.402 40.6716 38.0696 40.7841 37.6983 40.865C37.3357 40.946 36.9903 40.9865 36.6622 40.9865C36.0061 40.9865 35.501 40.8111 35.147 40.4602C34.793 40.1003 34.616 39.592 34.616 38.9352V31Z" fill="white"/>
<path d="M38.9347 39.3401L42.0429 35.5074H39.129V33.753H44.6071V35.2645L41.5119 39.0972H44.7237V40.8516H38.9347V39.3401Z" fill="white"/>
<path d="M45.6709 40.8516V33.753H48.1316V40.8516H45.6709ZM45.6709 33.1592V31H48.1316V33.1592H45.6709Z" fill="white"/>
<path d="M54 35.9393C53.5251 35.9393 53.0934 35.9933 52.7049 36.1012C52.3164 36.2092 52.0272 36.3891 51.8372 36.641V40.8516H49.3766V33.753H51.63V35.1026C51.8718 34.6257 52.1739 34.2614 52.5366 34.0094C52.8992 33.7485 53.2834 33.6181 53.6892 33.6181C53.7842 33.6181 53.8489 33.6181 53.8834 33.6181C53.9266 33.6181 53.9655 33.6226 54 33.6316V35.9393Z" fill="white"/>
<defs>
<linearGradient id="paint0_linear" x1="29.5" y1="0" x2="29.5" y2="51.2242" gradientUnits="userSpaceOnUse">
<stop stop-color="#A23DDF"/>
<stop offset="1" stop-color="#F4AD43"/>
</linearGradient>
</defs>
</svg>
